<svg viewBox="0 0 108 95" xmlns="http://www.w3.org/2000/svg"><path d="M55.2 59.8c-.5 1-1.1 2-1.2 3.2.8 1.1 1.6.7 2.5 0-.2-1.2-.7-2.2-1.3-3.2"/><path d="M52.8.7c-1.7.3-3.2 1.3-4.1 2.8l-47.3 82c-1 1.8-1 3.9 0 5.6 1 1.8 2.9 2.9 4.9 2.9H101c2 0 3.9-1.1 4.9-2.9 1-1.7 1-3.8 0-5.6l-47.3-82C57.4 1.4 55.1.4 52.8.7" fill="#fff000"/><path d="M53.2 3c-.9.2-1.7.7-2.1 1.5L3.4 87.1c-.5.9-.5 2.1 0 3 .5.9 1.5 1.5 2.6 1.5h95.4c1 0 2-.6 2.6-1.5.5-.9.5-2.1 0-3L56.3 4.5c-.7-1.1-1.8-1.6-3.1-1.5m.5 9.6l40.5 71.3H13.1z"/><path d="M58.2 37.8l-.5.1.1.4-12.9 3.1h-.1c-.5.3-.9.7-1 1.2-.2.4-.2 1 0 1.4.3.9 1.2 1.7 2.2 1.6h.1l12.8-2.8.1.5.5-.1zm-.2 1.1l.8 3.4-2.4.5H44.3c.1-.4.3-.7.8-.9zm-19.7 9.6l.5.2-.1.4L51.9 51c.6.2 1 .6 1.2 1.1.2.4.2 1 .1 1.4-.2 1-1 1.8-2.1 1.8L38 53.6v.5h-.5zm.4 1.1l-.6 3.5 2.5.3 12-1v-.1c-.1-.3-.4-.6-.8-.8zM24.9 69.9v4.3H46v-4.3h-6.4l-.2.3-.2.4-.4.3s-.1.2-.2.2h-.4c-.2 0-.3 0-.4.1-.1.1-.3.1-.3.2l-.3.4c0 .1-.1.2-.2.2h-.4s-.2.1-.3 0l-.3-.1c-.1 0-.3-.1-.3-.2-.1-.1 0-.2-.1-.3l-.1-.3c-.1-.1-.2-.1-.3-.1-.1 0-.4 0-.4-.1 0-.2 0-.3-.1-.4v-.6zm13.6-10.6c0 .9-.6 1.5-1.3 1.5-.7 0-1.3-.6-1.3-1.5 0-.8 1.2-3.9 1.4-3.9.1 0 1.2 3.1 1.2 3.9m-.3 7.8c0 .8-.6 1.5-1.3 1.5-.7 0-1.3-.7-1.3-1.5s1.2-3.9 1.3-3.9c.1 0 1.3 3.1 1.3 3.9m23.2-17.8c0 .9-.6 1.5-1.3 1.5-.7 0-1.3-.6-1.3-1.5 0-.8 1.2-3.9 1.3-3.9.2 0 1.3 3.1 1.3 3.9m-.1 9.8c0 .8-.6 1.5-1.3 1.5-.7 0-1.3-.7-1.3-1.5s1.2-3.9 1.3-3.9c.1 0 1.3 3.1 1.3 3.9m1.4 1.8c-.7 0-.8.3-.7.8.1.6.4.9.7 1.3 1.2 1 2.5 1.3 3.7 1.8v.3h-4.7c-.2.6-.8 1-1.5 1s-1.3-.4-1.5-1h-.4c0 .4-.4.7-.9.7-.4 0-.8-.3-.9-.7h-4.2c-.8 0-1.4.5-1.4 1.3s.6 1.4 1.4 1.4h11.8c.1.2.2.4 0 .6h-14c-.7 0-1.3.6-1.3 1.3 0 .8.6 1.3 1.3 1.3h12.5c.2.3.2.6 0 .8H51.4c-.7 0-1.3.5-1.3 1.2s.6 1.2 1.3 1.2H65c.1.1.2.4 0 .6h-9.4c-.6 0-1.1.5-1.1 1.2 0 .6.5 1.2 1.1 1.2h9.5v.1c5.9 1 12.9 1.1 17.3-1.1V65.7c-4.9-2.2-10.2-3.4-15.5-4.4-.6.1-1.4-.2-1.9.1-.7-.6-1.5-.5-2.3-.5"/></svg>